<svg preserveAspectRatio="none" width="100%" height="100%" overflow="visible" style="display: block;" viewBox="0 0 122 26" fill="none" xmlns="http://www.w3.org/2000/svg">
<g id="&#208;&#154;&#208;&#190;&#208;&#189;&#209;&#130;&#209;&#131;&#209;&#128;-&#208;&#156;">
<path id="Vector" d="M100.743 0H105.23L111.222 14.7026H111.453L117.458 0H122V20.3029H118.407V6.34977H118.245L112.632 20.2348H110.002L104.458 6.32252H104.268V20.3029H100.743V0Z" fill="var(--fill-0, #0E0F0F)"/>
<path id="Vector_2" d="M98.4395 10.3831V13.3263H89.3564V10.3831H98.4395Z" fill="var(--fill-0, #0E0F0F)"/>
<path id="Vector_3" d="M73.5605 25.9986V5.06892H77.0582V7.58975H77.2751C77.4559 7.22639 77.7134 6.83577 78.0478 6.4179C78.3822 5.99095 78.8341 5.62759 79.4035 5.32781C79.9819 5.02804 80.7185 4.87815 81.6133 4.87815C82.7791 4.87815 83.832 5.17793 84.772 5.77747C85.7119 6.37702 86.4575 7.25818 87.0088 8.42094C87.5692 9.5837 87.8494 11.0144 87.8494 12.7132C87.8494 14.3846 87.5782 15.8063 87.0359 16.9781C86.4937 18.15 85.7481 19.0448 84.7991 19.6625C83.8592 20.2711 82.7927 20.5754 81.5997 20.5754C80.7411 20.5754 80.0226 20.4301 79.4442 20.1394C78.8748 19.8396 78.4139 19.4854 78.0614 19.0766C77.7179 18.6587 77.4559 18.2635 77.2751 17.8911H77.126V25.9986H73.5605ZM80.6236 17.6322C81.4099 17.6322 82.0651 17.4187 82.5893 16.9918C83.1226 16.5648 83.5248 15.9789 83.7959 15.234C84.067 14.4891 84.2026 13.6443 84.2026 12.6995C84.2026 11.7548 84.067 10.9145 83.7959 10.1787C83.5248 9.4429 83.1271 8.86606 82.6029 8.44819C82.0787 8.03033 81.4189 7.82139 80.6236 7.82139C79.8554 7.82139 79.2047 8.02124 78.6714 8.42094C78.1472 8.82064 77.7451 9.3884 77.4649 10.1242C77.1938 10.8509 77.0582 11.7094 77.0582 12.6995C77.0582 13.6806 77.1938 14.5436 77.4649 15.2885C77.7451 16.0243 78.1518 16.6012 78.685 17.019C79.2182 17.4278 79.8644 17.6322 80.6236 17.6322Z" fill="var(--fill-0, #0E0F0F)"/>
<path id="Vector_4" d="M61.3744 25.9986C60.8864 26.0077 60.4345 25.9714 60.0187 25.8896C59.612 25.817 59.2822 25.7307 59.0291 25.6307L59.8696 22.8374L60.0459 22.8919C60.7689 23.0826 61.3835 23.0963 61.8896 22.9328C62.4047 22.7692 62.816 22.2742 63.1232 21.4475L63.4215 20.6299L57.9446 5.06892H61.7269L65.211 16.583H65.3737L68.8713 5.06892H72.6807L66.6073 22.1424C66.3271 22.9509 65.9566 23.6413 65.4957 24.2136C65.0347 24.795 64.4654 25.2356 63.7875 25.5354C63.1097 25.8442 62.3053 25.9986 61.3744 25.9986Z" fill="var(--fill-0, #0E0F0F)"/>
<path id="Vector_5" d="M44.6435 8.01216V5.06892H57.8885V8.01216H52.9945V20.3029H49.5375V8.01216H44.6435Z" fill="var(--fill-0, #0E0F0F)"/>
<path id="Vector_6" d="M41.9057 11.2007V14.1439H33.8666V11.2007H41.9057ZM34.9511 5.06892V20.3029H31.5212V5.06892H34.9511ZM44.2646 5.06892V20.3029H40.8347V5.06892H44.2646Z" fill="var(--fill-0, #0E0F0F)"/>
<path id="Vector_7" d="M22.8427 20.6027C21.3605 20.6027 20.0771 20.2757 18.9926 19.6216C17.908 18.9676 17.0675 18.0501 16.471 16.8691C15.8836 15.6882 15.5898 14.3165 15.5898 12.754C15.5898 11.1825 15.8836 9.80626 16.471 8.62533C17.0675 7.43532 17.908 6.51329 18.9926 5.85923C20.0771 5.20518 21.3605 4.87815 22.8427 4.87815C24.3249 4.87815 25.6083 5.20518 26.6928 5.85923C27.7774 6.51329 28.6179 7.43532 29.2144 8.62533C29.8109 9.80626 30.1091 11.1825 30.1091 12.754C30.1091 14.3165 29.8109 15.6882 29.2144 16.8691C28.6179 18.0501 27.7774 18.9676 26.6928 19.6216C25.6083 20.2757 24.3249 20.6027 22.8427 20.6027ZM22.8427 17.714C23.6651 17.714 24.343 17.4959 24.8762 17.0599C25.4094 16.6148 25.8071 16.0152 26.0692 15.2613C26.3403 14.5073 26.4759 13.6715 26.4759 12.754C26.4759 11.8184 26.3403 10.9736 26.0692 10.2196C25.8071 9.46561 25.4094 8.8706 24.8762 8.43457C24.343 7.98945 23.6651 7.76689 22.8427 7.76689C22.0383 7.76689 21.365 7.98945 20.8227 8.43457C20.2805 8.8706 19.8738 9.46561 19.6026 10.2196C19.3405 10.9736 19.2095 11.8184 19.2095 12.754C19.2095 13.6715 19.3405 14.5073 19.6026 15.2613C19.8738 16.0152 20.2805 16.6148 20.8227 17.0599C21.365 17.4959 22.0383 17.714 22.8427 17.714Z" fill="var(--fill-0, #0E0F0F)"/>
<path id="Vector_8" d="M12.1062 20.3029L5.09734 11.4323H3.66032V20.3029H0V0H3.66032V8.33919H5.05666L11.7537 0H16.2681L8.28317 9.83806L16.6206 20.3029H12.1062Z" fill="var(--fill-0, #0E0F0F)"/>
</g>
</svg>
