<svg preserveAspectRatio="none" width="100%" height="100%" overflow="visible" style="display: block;" viewBox="0 0 42.0619 42.3992" fill="none" xmlns="http://www.w3.org/2000/svg">
<g id="Group 11">
<g id="_2309984968608">
<path id="Vector" fill-rule="evenodd" clip-rule="evenodd" d="M19.93 1.54511L21.0181 0.520624L22.09 1.54242V23.3278H19.93V1.54511Z" fill="var(--fill-0, #B2B4B3)" stroke="var(--stroke-0, #B2B4B3)" stroke-width="0.755906" stroke-miterlimit="22.9256"/>
<path id="Vector_2" fill-rule="evenodd" clip-rule="evenodd" d="M39.5319 19.1331L41.531 21.1287L39.4842 23.2342L39.5319 19.1331Z" fill="var(--fill-0, #B2B4B3)" stroke="var(--stroke-0, #B2B4B3)" stroke-width="0.755906" stroke-miterlimit="22.9256"/>
<path id="Vector_3" fill-rule="evenodd" clip-rule="evenodd" d="M36.2302 15.7849L38.3902 17.9126V23.3449H36.2302V15.7849Z" fill="var(--fill-0, #B2B4B3)" stroke="var(--stroke-0, #B2B4B3)" stroke-width="0.755906" stroke-miterlimit="22.9256"/>
<path id="Vector_4" fill-rule="evenodd" clip-rule="evenodd" d="M32.9956 12.4554L35.1556 14.7381V23.3449H32.9956V12.4554Z" fill="var(--fill-0, #B2B4B3)" stroke="var(--stroke-0, #B2B4B3)" stroke-width="0.755906" stroke-miterlimit="22.9256"/>
<path id="Vector_5" fill-rule="evenodd" clip-rule="evenodd" d="M29.6852 9.27878L31.8452 11.4339V23.3449H29.6852V9.27878Z" fill="var(--fill-0, #B2B4B3)" stroke="var(--stroke-0, #B2B4B3)" stroke-width="0.755906" stroke-miterlimit="22.9256"/>
<path id="Vector_6" fill-rule="evenodd" clip-rule="evenodd" d="M26.4281 5.91585L28.5881 7.74952V23.3271H26.4281V5.91585Z" fill="var(--fill-0, #B2B4B3)" stroke="var(--stroke-0, #B2B4B3)" stroke-width="0.755906" stroke-miterlimit="22.9256"/>
<path id="Vector_7" fill-rule="evenodd" clip-rule="evenodd" d="M23.1761 2.65954L25.3361 4.57777V23.3259H23.1761V2.65954Z" fill="var(--fill-0, #B2B4B3)" stroke="var(--stroke-0, #B2B4B3)" stroke-width="0.755906" stroke-miterlimit="22.9256"/>
<path id="Vector_8" fill-rule="evenodd" clip-rule="evenodd" d="M39.5319 19.1331L41.531 21.1287L39.4842 23.2342L39.5319 19.1331Z" fill="var(--fill-0, #B2B4B3)" stroke="var(--stroke-0, #B2B4B3)" stroke-width="0.755906" stroke-miterlimit="22.9256"/>
<path id="Vector_9" fill-rule="evenodd" clip-rule="evenodd" d="M36.2302 15.7849L38.3902 17.9126V23.3449H36.2302V15.7849Z" fill="var(--fill-0, #B2B4B3)" stroke="var(--stroke-0, #B2B4B3)" stroke-width="0.755906" stroke-miterlimit="22.9256"/>
<path id="Vector_10" fill-rule="evenodd" clip-rule="evenodd" d="M32.9956 12.4554L35.1556 14.7381V23.3449H32.9956V12.4554Z" fill="var(--fill-0, #B2B4B3)" stroke="var(--stroke-0, #B2B4B3)" stroke-width="0.755906" stroke-miterlimit="22.9256"/>
<path id="Vector_11" fill-rule="evenodd" clip-rule="evenodd" d="M29.6852 9.27878L31.8452 11.4339V23.3449H29.6852V9.27878Z" fill="var(--fill-0, #B2B4B3)" stroke="var(--stroke-0, #B2B4B3)" stroke-width="0.755906" stroke-miterlimit="22.9256"/>
<path id="Vector_12" fill-rule="evenodd" clip-rule="evenodd" d="M26.4281 5.91585L28.5881 7.74952V23.3271H26.4281V5.91585Z" fill="var(--fill-0, #B2B4B3)" stroke="var(--stroke-0, #B2B4B3)" stroke-width="0.755906" stroke-miterlimit="22.9256"/>
<path id="Vector_13" fill-rule="evenodd" clip-rule="evenodd" d="M23.1761 2.65954L25.3361 4.57777V23.3259H23.1761V2.65954Z" fill="var(--fill-0, #B2B4B3)" stroke="var(--stroke-0, #B2B4B3)" stroke-width="0.755906" stroke-miterlimit="22.9256"/>
<path id="Vector_14" fill-rule="evenodd" clip-rule="evenodd" d="M2.53001 19.1331L0.530972 21.1287L2.57773 23.2342L2.53001 19.1331Z" fill="var(--fill-0, #B2B4B3)" stroke="var(--stroke-0, #B2B4B3)" stroke-width="0.755906" stroke-miterlimit="22.9256"/>
<path id="Vector_15" fill-rule="evenodd" clip-rule="evenodd" d="M5.83177 15.7849L3.67178 17.9126V23.3449H5.83177V15.7849Z" fill="var(--fill-0, #B2B4B3)" stroke="var(--stroke-0, #B2B4B3)" stroke-width="0.755906" stroke-miterlimit="22.9256"/>
<path id="Vector_16" fill-rule="evenodd" clip-rule="evenodd" d="M9.06635 12.4554L6.90636 14.7381V23.3449H9.06635V12.4554Z" fill="var(--fill-0, #B2B4B3)" stroke="var(--stroke-0, #B2B4B3)" stroke-width="0.755906" stroke-miterlimit="22.9256"/>
<path id="Vector_17" fill-rule="evenodd" clip-rule="evenodd" d="M12.3767 9.27878L10.2168 11.4339V23.3449H12.3767V9.27878Z" fill="var(--fill-0, #B2B4B3)" stroke="var(--stroke-0, #B2B4B3)" stroke-width="0.755906" stroke-miterlimit="22.9256"/>
<path id="Vector_18" fill-rule="evenodd" clip-rule="evenodd" d="M15.6338 5.91585L13.4738 7.74952V23.3271H15.6338V5.91585Z" fill="var(--fill-0, #B2B4B3)" stroke="var(--stroke-0, #B2B4B3)" stroke-width="0.755906" stroke-miterlimit="22.9256"/>
<path id="Vector_19" fill-rule="evenodd" clip-rule="evenodd" d="M18.8858 2.65954L16.7258 4.57777V23.3259H18.8858V2.65954Z" fill="var(--fill-0, #B2B4B3)" stroke="var(--stroke-0, #B2B4B3)" stroke-width="0.755906" stroke-miterlimit="22.9256"/>
</g>
<path id="Vector_20" fill-rule="evenodd" clip-rule="evenodd" d="M21.0236 41.8622L39.4842 23.2343L2.57772 23.2342L21.0236 41.8622Z" fill="var(--fill-0, #2A2927)" stroke="var(--stroke-0, #2A2927)" stroke-width="0.755906" stroke-miterlimit="22.9256"/>
<path id="Vector_21" d="M29.4231 23.3256C29.4329 26.8074 26.647 31.3469 21.0086 31.2747C15.3701 31.2024 12.7035 26.741 12.8 23.3139" stroke="var(--stroke-0, #FEFEFE)" stroke-width="4" stroke-miterlimit="22.9256"/>
<path id="Vector_22" d="M29.3832 23.2342C29.3846 22.0136 28.2799 19.481 27.5674 18.5028L20.9395 9.20968C18.7531 12.3349 16.6842 15.3927 14.6577 18.6679C14.2864 19.268 13.0783 21.5681 12.9478 23.2342" stroke="var(--stroke-0, #2A2927)" stroke-width="4" stroke-miterlimit="22.9256"/>
</g>
</svg>
