<svg preserveAspectRatio="none" width="100%" height="100%" overflow="visible" style="display: block;" viewBox="0 0 20 20" fill="none" xmlns="http://www.w3.org/2000/svg">
<g id="Group">
<g id="Vector">
</g>
<path id="Vector_2" d="M3.1525 2.355L10 0.833333L16.8475 2.355C17.0326 2.39614 17.198 2.49914 17.3167 2.647C17.4353 2.79487 17.5 2.97876 17.5 3.16833V11.4908C17.4999 12.3139 17.2967 13.1243 16.9082 13.85C16.5198 14.5757 15.9582 15.1943 15.2733 15.6508L10 19.1667L4.72667 15.6508C4.04189 15.1944 3.48038 14.5759 3.09196 13.8504C2.70353 13.1248 2.5002 12.3146 2.5 11.4917V3.16833C2.50003 2.97876 2.5647 2.79487 2.68332 2.647C2.80195 2.49914 2.96745 2.39614 3.1525 2.355V2.355Z" fill="var(--fill-0, #D25E24)"/>
</g>
</svg>
