<svg preserveAspectRatio="none" width="100%" height="100%" overflow="visible" style="display: block;" viewBox="0 0 24 24" fill="none" xmlns="http://www.w3.org/2000/svg">
<g id="Group">
<g id="Vector">
</g>
<path id="Vector_2" d="M5.636 12.707L7.464 14.536L8.88 13.12L7.05 11.293L8.464 9.879L10.293 11.707L11.707 10.293L9.88 8.464L11.294 7.05L13.12 8.88L14.535 7.465L12.706 5.637L15.535 2.809C15.7225 2.62153 15.9768 2.51621 16.242 2.51621C16.5072 2.51621 16.7615 2.62153 16.949 2.809L21.191 7.051C21.3785 7.23853 21.4838 7.49284 21.4838 7.758C21.4838 8.02316 21.3785 8.27747 21.191 8.465L8.464 21.192C8.27647 21.3795 8.02216 21.4848 7.757 21.4848C7.49184 21.4848 7.23753 21.3795 7.05 21.192L2.808 16.95C2.62053 16.7625 2.51521 16.5082 2.51521 16.243C2.51521 15.9778 2.62053 15.7235 2.808 15.536L5.636 12.707V12.707ZM14.121 18.363L18.364 14.121L21 16.757V21H16.758L14.121 18.363ZM5.636 9.878L2.807 7.05C2.71402 6.95713 2.64026 6.84684 2.58994 6.72544C2.53962 6.60404 2.51371 6.47392 2.51371 6.3425C2.51371 6.21108 2.53962 6.08096 2.58994 5.95956C2.64026 5.83816 2.71402 5.72787 2.807 5.635L5.636 2.807C5.82353 2.61953 6.07784 2.51421 6.343 2.51421C6.60816 2.51421 6.86247 2.61953 7.05 2.807L9.88 5.635L5.636 9.878Z" fill="var(--fill-0, white)"/>
</g>
</svg>
