<svg preserveAspectRatio="none" width="100%" height="100%" overflow="visible" style="display: block;" viewBox="0 0 93.8465 20" fill="none" xmlns="http://www.w3.org/2000/svg">
<g id="&#208;&#154;&#208;&#190;&#208;&#189;&#209;&#130;&#209;&#131;&#209;&#128;-&#208;&#156;">
<path id="Vector" d="M77.4951 0H80.9469L85.5561 11.3098H85.7334L90.3531 0H93.8466V15.6178H91.0831V4.8845H90.9579L86.6407 15.5654H84.6176L80.3524 4.86354H80.2065V15.6178H77.4951V0Z" fill="var(--fill-0, #0E0F0F)"/>
<path id="Vector_2" d="M75.7223 7.9873V10.2514H68.7354V7.9873H75.7223Z" fill="var(--fill-0, #0E0F0F)"/>
<path id="Vector_3" d="M56.585 19.9992V3.89923H59.2755V5.83836H59.4423C59.5814 5.55884 59.7795 5.25837 60.0367 4.93693C60.294 4.6085 60.6416 4.32898 61.0796 4.09838C61.5245 3.86779 62.0911 3.75249 62.7794 3.75249C63.6762 3.75249 64.4861 3.98309 65.2091 4.44428C65.9322 4.90548 66.5057 5.5833 66.9298 6.47774C67.3608 7.37219 67.5763 8.47277 67.5763 9.7795C67.5763 11.0653 67.3678 12.1589 66.9506 13.0603C66.5335 13.9617 65.96 14.65 65.23 15.1252C64.507 15.5934 63.6866 15.8275 62.7689 15.8275C62.1085 15.8275 61.5558 15.7157 61.1108 15.4921C60.6729 15.2615 60.3183 14.9889 60.0472 14.6745C59.783 14.353 59.5814 14.0491 59.4423 13.7626H59.3276V19.9992H56.585ZM62.0181 13.5634C62.6229 13.5634 63.127 13.3992 63.5302 13.0708C63.9404 12.7423 64.2497 12.2916 64.4583 11.7186C64.6669 11.1456 64.7711 10.4958 64.7711 9.76902C64.7711 9.04228 64.6669 8.39591 64.4583 7.82989C64.2497 7.26388 63.9438 6.82015 63.5406 6.49871C63.1374 6.17727 62.6299 6.01655 62.0181 6.01655C61.4272 6.01655 60.9266 6.17028 60.5164 6.47774C60.1132 6.78521 59.8038 7.22195 59.5883 7.78796C59.3798 8.34699 59.2755 9.00734 59.2755 9.76902C59.2755 10.5237 59.3798 11.1875 59.5883 11.7605C59.8038 12.3266 60.1167 12.7703 60.5269 13.0917C60.937 13.4062 61.4341 13.5634 62.0181 13.5634Z" fill="var(--fill-0, #0E0F0F)"/>
<path id="Vector_4" d="M47.2106 19.9989C46.8352 20.0059 46.4876 19.9779 46.1678 19.9151C45.8549 19.8591 45.6012 19.7928 45.4065 19.7159L46.0531 17.5671L46.1886 17.6091C46.7448 17.7558 47.2176 17.7663 47.6069 17.6405C48.0031 17.5147 48.3195 17.1339 48.5558 16.498L48.7853 15.8691L44.5723 3.89893H47.4817L50.1618 12.756H50.2869L52.9774 3.89893H55.9077L51.2359 17.0326C51.0204 17.6545 50.7353 18.1856 50.3808 18.6258C50.0262 19.073 49.5882 19.4119 49.0668 19.6425C48.5454 19.8801 47.9267 19.9989 47.2106 19.9989Z" fill="var(--fill-0, #0E0F0F)"/>
<path id="Vector_5" d="M34.3406 6.16303V3.89897H44.529V6.16303H40.7644V15.6176H38.1052V6.16303H34.3406Z" fill="var(--fill-0, #0E0F0F)"/>
<path id="Vector_6" d="M32.2351 8.61576V10.8798H26.0512V8.61576H32.2351ZM26.8854 3.89897V15.6176H24.2471V3.89897H26.8854ZM34.0496 3.89897V15.6176H31.4113V3.89897H34.0496Z" fill="var(--fill-0, #0E0F0F)"/>
<path id="Vector_7" d="M17.5712 15.8484C16.4311 15.8484 15.4439 15.5969 14.6096 15.0937C13.7754 14.5906 13.1288 13.8849 12.67 12.9764C12.2181 12.068 11.9921 11.0129 11.9921 9.81094C11.9921 8.60205 12.2181 7.54339 12.67 6.63497C13.1288 5.71956 13.7754 5.0103 14.6096 4.50717C15.4439 4.00405 16.4311 3.75249 17.5712 3.75249C18.7114 3.75249 19.6986 4.00405 20.5328 4.50717C21.3671 5.0103 22.0136 5.71956 22.4725 6.63497C22.9313 7.54339 23.1607 8.60205 23.1607 9.81094C23.1607 11.0129 22.9313 12.068 22.4725 12.9764C22.0136 13.8849 21.3671 14.5906 20.5328 15.0937C19.6986 15.5969 18.7114 15.8484 17.5712 15.8484ZM17.5712 13.6263C18.2039 13.6263 18.7253 13.4586 19.1355 13.1232C19.5456 12.7808 19.8515 12.3196 20.0531 11.7396C20.2617 11.1596 20.366 10.5167 20.366 9.81094C20.366 9.0912 20.2617 8.44133 20.0531 7.86134C19.8515 7.28135 19.5456 6.82364 19.1355 6.48823C18.7253 6.14582 18.2039 5.97462 17.5712 5.97462C16.9525 5.97462 16.4345 6.14582 16.0174 6.48823C15.6003 6.82364 15.2874 7.28135 15.0789 7.86134C14.8773 8.44133 14.7765 9.0912 14.7765 9.81094C14.7765 10.5167 14.8773 11.1596 15.0789 11.7396C15.2874 12.3196 15.6003 12.7808 16.0174 13.1232C16.4345 13.4586 16.9525 13.6263 17.5712 13.6263Z" fill="var(--fill-0, #0E0F0F)"/>
<path id="Vector_8" d="M9.31239 15.6178L3.92101 8.7942H2.81562V15.6178H0V0H2.81562V6.41484H3.88972L9.04126 0H12.5139L6.37164 7.56783L12.785 15.6178H9.31239Z" fill="var(--fill-0, #0E0F0F)"/>
</g>
</svg>
